<svg width="24" height="24" viewBox="0 0 24 24" fill="none" xmlns="http://www.w3.org/2000/svg">
<path d="M14 21V16H10V21M19 13V21H5V13M20 9L18 4H6L4 9M20 9H4M20 9V11C20 12.1046 19.1046 13 18 13C16.8954 13 16 12.1046 16 11M4 9V11C4 12.1046 4.89543 13 6 13C7.10457 13 8 12.1046 8 11M8 11V9M8 11C8 12.1046 8.89543 13 10 13C11.1046 13 12 12.1046 12 11M12 11V9M12 11C12 12.1046 12.8954 13 14 13C15.1046 13 16 12.1046 16 11M16 11V9" stroke="white" stroke-width="2" stroke-linecap="round" stroke-linejoin="round"/>
</svg>
